#!OML:ASF I:\Actors\actors\Patient Classification 1\Patient 1\Session 1\Subject1.ASF
:FULLY-SPECIFIED
:DEGREES
534
root 0.501042 17.6098 7.70193 12.0189 -31.0102 -7.72739
lowerback 1.40945 -3.554 6.10696
upperback -4.99684 -4.28447 5.57228
thorax -6.03394 -2.29922 2.71105
lowerneck -16.5558 0.0300745 1.83039
upperneck 34.5714 -3.4383 6.10058
head 14.9055 -0.538371 1.57189
rclavicle 1.82186e-013 -2.38542e-015
rhumerus 47.2377 46.1845 -59.0094
rradius 136.88
rwrist -56.9947
rhand 3.93492 -47.5475
rfingers 7.12502
rthumb 29.3536 284.75
lclavicle 1.82186e-013 -2.38542e-015
lhumerus 69.9234 52.6285 118.933
lradius 14.9085
lwrist -106.52
lhand -55.6437 -68.6875
lfingers 7.12502
lthumb -27.9957 -40.7555
rfemur -17.3788 26.1486 21.486
rtibia 9.82896
rfoot -7.21578 4.36549
rtoes -1.42633
lfemur 3.11157 -24.9112 -12.4666
ltibia 0.407007
lfoot -34.3311 52.8632
ltoes 26.2848
535
root 0.493157 17.6065 7.70637 11.9006 -30.8323 -7.69486
lowerback 1.38398 -3.41067 6.24773
upperback -5.04177 -4.08826 5.4698
thorax -6.08503 -2.21143 2.51362
lowerneck -16.4503 -0.093924 1.76071
upperneck 34.5478 -3.58633 6.09356
head 14.8755 -0.612681 1.55498
rclavicle 4.94725e-014 7.23576e-014
rhumerus 46.9374 46.1679 -59.2843
rradius 136.917
rwrist -56.8631
rhand 3.66534 -47.8119
rfingers 7.12502
rthumb 29.0961 284.441
lclavicle 4.94725e-014 7.23576e-014
lhumerus 48.8251 44.6 93.011
lradius 17.6929
lwrist -86.5576
lhand -55.4839 -68.6638
lfingers 7.12502
lthumb -27.8429 -40.7069
rfemur -17.3143 26.3526 21.5273
rtibia 10.0278
rfoot -7.34394 4.06845
rtoes -1.2448
lfemur 3.25179 -25.1095 -12.5276
ltibia 0.359327
lfoot -34.4855 52.89
ltoes 26.142
536
root 0.488631 17.6013 7.71099 11.8034 -30.7033 -7.73044
lowerback 1.31599 -3.24733 6.48391
upperback -5.01425 -3.87177 5.32716
thorax -6.04241 -2.11719 2.21243
lowerneck -16.2906 -0.198584 1.59202
upperneck 34.3535 -3.72864 6.29605
head 14.7615 -0.672863 1.63953
rclavicle 9.99887e-014 1.19271e-014
rhumerus 46.7092 45.9505 -59.6188
rradius 136.971
rwrist -56.7355
rhand 3.51731 -48.1704
rfingers 7.12502
rthumb 28.9548 284.058
lclavicle 9.99887e-014 1.19271e-014
lhumerus 37.4928 34.8226 78.117
lradius 21.9893
lwrist -70.1559
lhand -55.1491 -68.2664
lfingers 7.12502
lthumb -27.5228 -40.2581
rfemur -17.2163 26.4831 21.6578
rtibia 10.2104
rfoot -7.47509 3.89911
rtoes -1.16534
lfemur 3.44553 -25.2501 -12.5556
ltibia 0.279027
lfoot -34.4511 52.9822
ltoes 25.7832
537
root 0.487753 17.5958 7.71707 11.651 -30.5792 -7.75091
lowerback 1.32356 -3.05559 6.76982
upperback -4.92993 -3.61365 5.10587
thorax -5.98757 -2.00473 1.80085
lowerneck -16.2916 -0.317615 1.61971
upperneck 34.1046 -3.89912 6.35044
head 14.6544 -0.736352 1.62209
rclavicle 2.96189e-014 3.4191e-014
rhumerus 46.4509 45.4142 -60.1031
rradius 137.013
rwrist -56.4357
rhand 3.6814 -48.7021
rfingers 7.12502
rthumb 29.1115 283.553
lclavicle 2.96189e-014 3.4191e-014
lhumerus 30.8691 26.2005 69.3047
lradius 27.8639
lwrist -56.7807
lhand -55.3338 -69.2736
lfingers 7.12502
lthumb -27.6994 -41.2935
rfemur -17.0126 26.4809 21.8123
rtibia 10.2998
rfoot -7.57702 3.80577
rtoes -1.54871
lfemur 3.73336 -25.4522 -12.6698
ltibia 0.190005
lfoot -34.6081 53.0391
ltoes 25.4896
538
root 0.487856 17.5894 7.72272 11.501 -30.4604 -7.83144
lowerback 1.52915 -2.83791 7.02839
upperback -4.90218 -3.29543 4.92738
thorax -6.0967 -1.86326 1.46086
lowerneck -16.4659 -0.470563 1.73736
upperneck 33.9671 -4.09288 6.2038
head 14.6313 -0.819263 1.50492
rclavicle -1.5207e-014 -2.78299e-014
rhumerus 45.9736 44.9162 -60.7154
rradius 137.081
rwrist -55.5892
rhand 4.19367 -49.4344
rfingers 7.12502
rthumb 29.6006 282.907
lclavicle -1.5207e-014 -2.78299e-014
lhumerus 26.0379 19.0115 63.8455
lradius 35.6431
lwrist -44.0155
lhand -54.2393 -64.8233
lfingers 7.12502
lthumb -26.6523 -36.6795
rfemur -16.7351 26.4563 22.0303
rtibia 10.2873
rfoot -7.62755 3.73563
rtoes -1.89936
lfemur 4.07983 -25.6538 -12.7408
ltibia 0.0579079
lfoot -34.7024 53.1158
ltoes 25.1624
539
root 0.487092 17.5818 7.72887 11.4423 -30.3 -8.02763
lowerback 1.78027 -2.61001 7.2702
upperback -4.95507 -2.94957 4.84876
thorax -6.30681 -1.70911 1.23758
lowerneck -16.3883 -0.656279 1.70747
upperneck 33.6347 -4.26151 6.07876
head 14.4616 -0.917582 1.42279
rclavicle 4.80313e-014 -7.4743e-014
rhumerus 45.2466 44.596 -61.4829
rradius 137.22
rwrist -54.4341
rhand 4.74968 -50.2847
rfingers 7.12502
rthumb 30.1312 282.152
lclavicle 4.80313e-014 -7.4743e-014
lhumerus 21.8977 13.462 60.9763
lradius 44.9469
lwrist -32.7608
lhand -55.0086 -68.2566
lfingers 7.12502
lthumb -27.3883 -40.227
rfemur -16.4563 26.4368 22.3314
rtibia 10.2063
rfoot -7.6652 3.6491
rtoes -2.10611
lfemur 4.39459 -25.8946 -12.6598
ltibia -0.121027
lfoot -34.9634 53.2005
ltoes 25.1733
